<?xml version="1.0" standalone="no"?>
<!DOCTYPE svg PUBLIC "-//W3C//DTD SVG 20010904//EN"
 "http://www.w3.org/TR/2001/REC-SVG-20010904/DTD/svg10.dtd">
<svg version="1.0" xmlns="http://www.w3.org/2000/svg"
 width="700.000000pt" height="700.000000pt" viewBox="0 0 700.000000 700.000000"
 preserveAspectRatio="xMidYMid meet">
<metadata>
Created by potrace 1.11, written by Peter Selinger 2001-2013
</metadata>
<g transform="translate(0.000000,700.000000) scale(0.100000,-0.100000)"
fill="#000000" stroke="none">
<path d="M5438 6995 c-2 -1 -30 -5 -63 -9 -63 -6 -70 -8 -150 -25 -445 -100
-848 -448 -1011 -876 -34 -89 -72 -227 -80 -285 -3 -25 -7 -57 -10 -72 -2 -15
-6 -53 -9 -83 -14 -170 -97 -344 -224 -472 -74 -75 -87 -85 -168 -131 -108
-60 -209 -91 -348 -107 -125 -13 -153 -17 -190 -27 -22 -5 -47 -11 -55 -13 -9
-2 -49 -14 -90 -28 -537 -180 -923 -667 -975 -1227 -13 -138 -33 -216 -82
-315 -124 -250 -361 -415 -633 -440 -223 -21 -396 -71 -577 -166 -273 -143
-481 -357 -623 -638 -57 -114 -85 -193 -116 -328 -24 -103 -27 -140 -28 -288
-1 -156 3 -204 19 -290 39 -202 135 -418 258 -584 563 -759 1685 -784 2279
-51 178 219 284 475 314 755 10 95 13 111 28 176 57 248 260 469 508 553 63
21 84 25 222 42 248 30 454 102 641 222 332 213 572 565 639 937 3 17 8 41 11
55 3 14 8 54 11 90 24 270 140 474 350 618 123 84 219 115 434 138 484 52 926
369 1138 814 38 80 85 210 96 262 3 13 12 59 22 103 23 112 24 380 1 495 -38
190 -67 275 -148 430 -169 323 -470 578 -819 694 -58 19 -121 37 -140 40 -62
10 -94 16 -120 22 -25 6 -306 15 -312 9z m282 -420 c311 -48 589 -249 753
-545 13 -25 38 -85 55 -135 127 -373 41 -769 -228 -1045 -194 -200 -403 -297
-695 -325 -268 -25 -506 -135 -711 -329 l-90 -84 -24 51 c-75 157 -241 355
-404 482 -63 48 -218 145 -233 145 -5 0 -14 5 -19 10 -7 7 12 34 61 84 197
202 308 443 341 738 19 180 71 351 135 448 9 14 34 52 55 84 108 164 315 316
524 384 135 45 333 60 480 37z m-1953 -2079 c323 -90 592 -336 701 -641 48
-134 56 -184 56 -350 1 -136 -3 -173 -23 -250 -27 -104 -90 -245 -151 -336
-54 -80 -186 -212 -268 -268 -108 -73 -255 -137 -362 -157 -14 -2 -34 -6 -45
-9 -11 -2 -47 -7 -80 -10 -66 -6 -107 -12 -145 -20 -14 -3 -41 -8 -60 -11 -56
-11 -199 -63 -265 -97 -229 -119 -442 -336 -540 -552 -58 -127 -97 -266 -110
-385 -11 -115 -17 -147 -36 -224 -71 -280 -260 -519 -522 -656 -70 -36 -166
-73 -227 -85 -274 -58 -501 -29 -730 92 -235 124 -417 341 -499 593 -22 65
-25 80 -41 175 -13 77 -5 281 14 362 107 452 471 764 941 808 111 10 277 51
367 90 74 32 215 109 228 124 3 3 23 19 45 36 119 88 253 252 330 405 77 154
109 275 130 485 17 168 84 340 191 490 59 83 122 147 229 233 81 65 240 135
379 167 87 21 121 23 251 20 124 -2 166 -7 242 -29z"/>
<path d="M5412 6175 c-278 -62 -480 -309 -487 -595 -3 -121 14 -200 66 -308
32 -67 58 -102 118 -161 129 -129 263 -184 446 -184 127 0 168 9 284 65 117
56 221 159 280 278 23 47 44 96 47 110 16 80 19 114 18 195 -1 205 -104 394
-279 511 -51 34 -149 78 -201 90 -62 14 -230 13 -292 -1z m272 -437 c58 -44
88 -98 91 -165 4 -68 -10 -112 -48 -158 -87 -106 -257 -106 -345 1 -89 108
-55 272 70 338 47 25 60 27 121 22 58 -4 76 -10 111 -38z"/>
<path d="M3458 4135 c-2 -1 -25 -5 -53 -8 -163 -17 -345 -134 -442 -286 -19
-29 -48 -95 -64 -145 -25 -76 -30 -107 -30 -186 0 -101 1 -111 26 -199 42
-146 177 -305 315 -373 185 -91 387 -93 565 -7 170 82 318 267 341 427 3 21 7
44 10 52 3 8 5 53 5 100 -1 204 -102 396 -269 512 -54 37 -160 86 -204 93 -18
3 -40 8 -49 11 -20 5 -146 14 -151 9z m134 -431 c132 -67 172 -224 84 -339
-101 -132 -310 -108 -379 44 -57 129 13 272 153 311 38 10 105 3 142 -16z"/>
<path d="M1330 2070 c-303 -52 -529 -332 -519 -644 9 -298 216 -542 509 -602
208 -42 414 21 566 171 102 101 161 214 183 351 49 311 -143 615 -449 709 -61
19 -219 27 -290 15z m217 -426 c74 -46 111 -103 117 -182 8 -93 -43 -179 -132
-219 -113 -53 -238 -5 -293 112 -53 114 12 261 132 301 54 17 137 12 176 -12z"/>
</g>
</svg>
